# xmcd
#
# Track frame offsets: 
#        150
#        10745
#        21787
#        31715
#        42575
#        53967
#        64992
#        74882
#        86925
#        98350
#
# Disc length: 1461 seconds
#
# Revision: 1
# Processed by: cddbd v1.4PL0 Copyright (c) Steve Scherf et al.
# Submitted via: ExactAudioCopy v0.90b4
#
DISCID=8405b30a
DTITLE=Sons Of The Pioneers - Good Old Country Music
DYEAR=1999
DGENRE=Country
TTITLE0=Be Honest With Me
TTITLE1=It's A Sin
TTITLE2=Pins And Needles (In My Heart)
TTITLE3=(Don't Your Conscience Bother You) Hang Your Head In Shame
TTITLE4=Kaw-Liga
TTITLE5=Crazy Heart
TTITLE6=Roly Poly
TTITLE7=Blue Eyes Crying In The Rain
TTITLE8=The End Of The World
TTITLE9=No One Will Ever Know
EXTD=
EXTT0=
EXTT1=
EXTT2=
EXTT3=
EXTT4=
EXTT5=
EXTT6=
EXTT7=
EXTT8=
EXTT9=
PLAYORDER=
